Appleseed Saga: Ex Machina (2007) 
Ekusu makina (original title)
 103 min  -  Animation | Action | Sci-Fi  -   20 October 2007 (Japan)
7.1 Your rating:   -/10   Ratings: 7.1/10 from 5,062 users   
Reviews: 19 user | 31 critic
When a paramilitary task force called E.S.W.A.T. and its operations in the year 2133 Olympus, a futuristic utopia where humans... See full summary »

Director: Shinji Aramaki
Writers: Masamune Shirow (characters), Kiyoto Takeuchi (screenplay), and 1 more credit »
Stars: Ai Kobayashi, Kôichi Yamadera and Yûji Kishi 


Format                                   : MPEG-4
Format profile                           : Base Media
Codec ID                                 : isom
File size                                : 541 MiB
Duration                                 : 1h 44mn
Overall bit rate mode                    : Variable
Overall bit rate                         : 724 Kbps
Encoded date                             : UTC 2010-08-18 04:51:40
Tagged date                              : UTC 2010-08-18 04:51:40

Video
ID                                       : 1
Format                                   : AVC
Format/Info                              : Advanced Video Codec
Format profile                           : Baseline@L3.0
Format settings, CABAC                   : No
Format settings, ReFrames                : 1 frame
Codec ID                                 : avc1
Codec ID/Info                            : Advanced Video Coding
Duration                                 : 1h 44mn
Bit rate                                 : 600 Kbps
Maximum bit rate                         : 1 737 Kbps
Width                                    : 800 pixels
Height                                   : 480 pixels
Display aspect ratio                     : 1.667
Frame rate mode                          : Constant
Frame rate                               : 23.976 fps
Color space                              : YUV
Chroma subsampling                       : 4:2:0
Bit depth                                : 8 bits
Scan type                                : Progressive
Bits/(Pixel*Frame)                       : 0.065
Stream size                              : 445 MiB (82%)
Writing library                          : x264 core 65 r1077 e46f648


Audio
ID                                       : 2
Format                                   : AAC
Format/Info                              : Advanced Audio Codec
Format profile                           : LC
Codec ID                                 : 40
Duration                                 : 1h 44mn
Bit rate mode                            : Variable
Bit rate                                 : 125 Kbps
Maximum bit rate                         : 249 Kbps
Channel(s)                               : 2 channels
Channel positions                        : Front: L R
Sampling rate                            : 44.1 KHz
Compression mode                         : Lossy
Stream size                              : 93.7 MiB (17%)
Encoded date                             : UTC 2010-08-18 04:52:07
Tagged date                              : UTC 2010-08-18 04:52:19
